<svg xmlns="http://www.w3.org/2000/svg" xml:space="preserve" width="512px" height="512px" version="1.1" style="shape-rendering:geometricPrecision; text-rendering:geometricPrecision; image-rendering:optimizeQuality; fill-rule:evenodd; clip-rule:evenodd" viewBox="0 0 512 512" xmlns:xlink="http://www.w3.org/1999/xlink">
 <defs>
  <style type="text/css">
   
    .fil0 {fill:url(#id0)}
   
  </style>
  <linearGradient id="id0" gradientUnits="userSpaceOnUse" x1="256" y1="505.315" x2="256" y2="6.68506">
   <stop offset="0" style="stop-opacity: 1; stop-color: rgb(105, 79, 219);" id="id_102"></stop>
   <stop offset="0.490196" style="stop-opacity: 1; stop-color: rgb(79, 109, 219);" id="id_103"></stop>
   <stop offset="1" style="stop-opacity: 1; stop-color: rgb(79, 219, 205);" id="id_104"></stop>
  </linearGradient>
 </defs>
 <g id="Layer_x0020_1">
  <metadata id="CorelCorpID_0Corel-Layer"></metadata>
  <path class="fil0" d="M435 141c-34,-4 -61,-33 -61,-68l0 -59c0,-4 3,-7 8,-7 4,0 7,3 7,7l0 59c0,29 23,52 51,54 1,-1 2,-1 3,-1 1,0 1,0 2,1 29,-2 52,-25 52,-54l0 -59c0,-4 3,-7 7,-7 5,0 8,3 8,7l0 59c-1,35 -27,64 -62,68l0 357c0,4 -3,7 -8,7l-263 0c-4,0 -7,-3 -7,-7l0 -50 -122 0c-18,0 -32,-14 -32,-31l0 -187c-10,-4 -18,-11 -18,-19l0 -65c0,-8 8,-15 18,-19l0 1 0 -90c0,-17 14,-31 32,-31l259 0c17,0 31,14 31,31l0 379c0,17 -14,31 -31,31l-122 0 0 43 248 0 0 -350zm-149 49l-214 0c-10,0 -20,-9 -20,-20l0 -109c0,-11 9,-21 20,-21l214 0c11,0 20,9 20,21l0 109c0,11 -9,20 -20,20zm-214 -134c-2,0 -5,2 -5,5l0 109c0,3 3,6 5,6l214 0c3,0 5,-3 5,-6l0 -109c0,-3 -2,-6 -5,-6l-214 0 0 1zm31 103l-23 0c-4,0 -8,-3 -8,-7 0,-118 207,-123 212,-4 1,1 1,2 1,4 0,3 -3,7 -6,7l0 0 -1 0 0 0 0 0 0 0 0 0 0 0 0 0 0 0 0 0 -23 0c-4,0 -7,-3 -7,-7 0,-5 3,-8 7,-8l15 0c-2,-16 -10,-30 -21,-41l-11 9c-2,1 -3,2 -5,2 -2,0 -4,-1 -6,-3 -2,-3 -2,-8 1,-11l9 -7c-14,-10 -31,-16 -50,-17l0 11c-1,5 -4,8 -8,8 -4,0 -7,-3 -7,-8l0 -11c-19,1 -37,7 -51,17l10 7c3,3 3,8 1,11 -2,2 -4,3 -6,3 -2,0 -4,-1 -5,-2l-11 -10c-12,12 -20,26 -22,42l15 0c5,0 8,3 8,8 0,4 -3,7 -8,7zm72 -14c-4,0 -7,3 -7,5 0,2 3,5 7,5 4,0 7,-3 7,-5 0,-2 -3,-5 -7,-5zm10 -12l21 -18c3,-2 7,-2 10,1 3,3 3,8 0,11l-20 17c1,2 1,4 1,6 0,11 -10,20 -22,20 -12,0 -22,-9 -22,-20 0,-10 10,-20 22,-20 4,0 7,1 10,3zm51 220l-35 0c-10,0 -18,-8 -18,-18 0,-10 8,-19 18,-19l35 0c-8,-24 -30,-41 -57,-41 -33,0 -60,27 -60,60 0,33 27,60 60,60 27,0 49,-18 57,-42zm17 -31c0,0 0,1 0,1 1,4 1,8 1,12 0,3 0,7 -1,11 0,0 0,0 0,1 0,1 0,2 -1,3 -7,34 -37,59 -73,59 -41,0 -74,-33 -74,-74 0,-41 33,-75 74,-75 37,0 68,27 74,62zm-14 9l-38 0c-2,0 -4,2 -4,4 0,3 3,4 4,4l38 0c0,-1 0,-3 0,-4 0,-1 0,-3 0,-4zm-62 -82c-4,0 -8,-3 -8,-8l0 -20c0,-4 4,-7 8,-7 4,0 7,3 7,7l0 20c0,5 -3,8 -7,8zm66 25c-1,0 -3,0 -5,-2 -3,-3 -3,-7 0,-10l15 -15c3,-3 7,-3 10,0 3,3 3,8 0,11l-14 14c-2,2 -3,2 -6,2zm50 66l-20 0c-5,0 -8,-4 -8,-8 0,-4 3,-7 8,-7l20 0c4,0 7,3 7,7 0,4 -3,8 -7,8zm-182 -62c-1,0 -3,-1 -5,-2l-14 -14c-3,-3 -3,-8 0,-11 3,-3 8,-3 10,0l15 14c3,3 3,8 0,11 -2,1 -4,2 -6,2zm-25 67l-20 0c-4,0 -8,-4 -8,-8 0,-4 4,-7 8,-7l20 0c4,0 8,3 8,7 0,4 -4,8 -8,8z" id="id_101"></path>
 </g>
</svg>